<svg xmlns="http://www.w3.org/2000/svg" width="14.65cm" height="20.66cm" viewBox="0 0 415.18 585.73">
  <path d="M416.81,586.73V162h0V133.82q0-24.61-4.54-43.83-3.45-14.46-10.36-22.89-9.06-11.22-26.12-17.59t-55.28-6.37q-5,0-9.93.21h-7.34q-25.49,0-36.17-4.31T251.2,26.4Q246,18.09,246,1.47H172q-.44,16.18-5.18,24.72T151.45,39.25q-10.57,4.53-35.63,4.54c-3.31,0-6.55-.08-9.71-.22q-7.77-.43-15.55-.43-35.19,0-52.79,7.55T11,76q-9.18,17.7-9.18,59.8V162h0V587.2h70V587H72L210,405,345.94,586.93v.27h70.87V587H417ZM242.1,341.66H178L71.78,489.74V163q0-21.15,3.67-28.16t12.52-10q8.86-3,38-3,32.39,0,47.18-5t22-12q7.23-7,13.93-21.48,6,13.89,11.87,20,7.78,8,20.52,12.37,16.62,5.86,45.66,6.08t35.52,1.74q11.86,2.79,17.6,9.55t5.72,20.3V162h-.05V487.33Z" transform="translate(-1.82 -1.47)" style="fill: #fff"/>
</svg>
