<?xml version="1.0" standalone="no"?>
<!DOCTYPE svg PUBLIC "-//W3C//DTD SVG 20010904//EN"
 "http://www.w3.org/TR/2001/REC-SVG-20010904/DTD/svg10.dtd">
<svg version="1.0" xmlns="http://www.w3.org/2000/svg"
 width="781.000000pt" height="781.000000pt" viewBox="0 0 781.000000 781.000000"
 preserveAspectRatio="xMidYMid meet">
<metadata>
Created by potrace 1.11, written by Peter Selinger 2001-2013
</metadata>
<g transform="translate(0.000000,781.000000) scale(0.100000,-0.100000)"
fill="#000000" stroke="none">
<path d="M3398 7773 c-8 -191 -61 -325 -161 -403 -44 -35 -142 -78 -212 -94
-127 -28 -222 -31 -700 -23 -88 1 -172 -1 -187 -5 -17 -4 -28 -3 -28 3 0 6 -5
7 -11 4 -6 -4 -27 -8 -47 -10 -75 -6 -157 -16 -172 -20 -8 -3 -32 -7 -52 -9
-73 -9 -272 -75 -288 -95 -3 -4 -28 -21 -56 -39 -28 -17 -73 -55 -100 -84 -54
-57 -124 -155 -124 -175 0 -6 -3 -13 -7 -15 -18 -7 -77 -202 -87 -283 -2 -22
-5 -40 -6 -40 -1 0 -3 -18 -6 -40 -2 -22 -7 -60 -11 -85 -4 -25 -8 -1466 -10
-3202 l-3 -3158 469 0 c454 0 471 1 481 19 5 11 16 25 23 33 7 7 62 78 122
158 59 80 119 159 132 175 31 40 14 17 243 320 112 149 207 272 212 273 4 2 8
10 8 17 0 7 3 15 8 17 4 2 63 77 132 168 68 91 128 170 132 175 5 6 22 28 39
50 16 22 35 47 42 55 7 8 53 69 102 135 50 66 95 126 102 135 17 21 284 373
308 406 11 15 31 42 45 60 14 17 34 44 45 60 11 15 25 32 30 38 6 6 29 37 53
69 23 31 46 57 51 57 8 0 111 -132 120 -154 3 -8 23 -34 46 -60 6 -6 35 -45
65 -86 30 -41 58 -79 63 -85 4 -5 33 -44 64 -85 30 -41 64 -86 74 -100 191
-251 429 -574 429 -581 0 -5 3 -9 8 -9 4 0 18 -17 32 -37 14 -21 30 -45 37
-53 7 -8 26 -33 42 -55 17 -22 34 -44 39 -50 4 -5 48 -64 97 -130 49 -66 95
-126 102 -133 7 -7 13 -16 13 -20 0 -4 11 -20 25 -37 36 -44 38 -47 65 -85 13
-19 27 -37 30 -40 3 -3 70 -93 150 -200 80 -107 149 -200 155 -207 5 -6 43
-57 84 -112 l75 -101 471 0 472 0 -2 3113 c-2 1711 -5 3144 -8 3182 -6 74 -14
144 -22 185 -3 14 -10 54 -16 90 -7 36 -16 76 -21 90 -6 14 -12 36 -14 49 -14
74 -120 247 -183 299 -113 92 -288 177 -410 197 -19 3 -37 7 -40 9 -6 4 -25 6
-151 21 -103 12 -233 17 -555 20 -187 2 -356 6 -375 9 -19 3 -49 7 -65 10 -77
11 -215 61 -215 78 0 5 -7 8 -15 8 -8 0 -15 5 -15 10 0 6 -5 10 -11 10 -15 0
-64 55 -94 105 -37 62 -63 172 -64 273 l-1 52 -495 0 -495 0 -2 -37z m516
-1104 c-3 -5 -2 -9 3 -9 4 0 14 -15 22 -32 39 -91 119 -190 200 -247 77 -55
238 -119 341 -136 19 -3 49 -8 65 -11 109 -18 207 -24 465 -29 348 -7 405 -14
506 -61 125 -58 185 -142 199 -275 9 -88 12 -489 3 -489 -4 0 -5 -6 -2 -14 9
-23 10 -146 1 -146 -5 0 -5 -5 -2 -11 4 -6 7 -117 6 -247 0 -130 -1 -253 -1
-272 0 -19 1 -52 3 -72 1 -21 -1 -38 -5 -38 -4 0 -5 -7 -2 -15 9 -22 10 -465
2 -465 -4 0 -5 -6 -2 -14 9 -23 10 -146 1 -146 -5 0 -5 -5 -2 -11 4 -6 7 -117
6 -247 0 -130 -1 -253 -1 -272 0 -19 1 -52 3 -72 1 -21 -1 -38 -5 -38 -4 0 -5
-7 -2 -15 9 -22 10 -465 2 -465 -4 0 -5 -6 -2 -14 9 -23 10 -1106 1 -1106 -5
0 -5 -5 -2 -11 9 -13 10 -253 1 -267 -3 -6 -3 -12 2 -14 4 -1 5 -19 2 -38 l-6
-35 -13 25 c-18 31 -73 104 -83 108 -5 2 -8 8 -8 13 0 6 -15 30 -32 53 -18 24
-40 54 -48 66 -8 12 -20 28 -26 34 -6 6 -19 25 -29 41 -11 17 -54 78 -97 137
-43 59 -78 112 -78 117 0 5 -4 11 -8 13 -8 3 -89 115 -427 590 -126 178 -232
325 -235 328 -3 3 -9 13 -15 22 -5 9 -71 102 -145 205 l-135 188 -425 0 -425
0 -48 -65 c-26 -36 -53 -72 -60 -80 -7 -9 -28 -38 -47 -65 -19 -28 -38 -51
-42 -53 -4 -2 -8 -8 -8 -13 0 -6 -5 -15 -10 -22 -6 -7 -28 -37 -50 -67 -22
-30 -43 -59 -47 -65 -5 -5 -47 -63 -93 -128 -47 -66 -94 -131 -105 -147 -11
-15 -29 -40 -40 -56 -23 -33 -147 -207 -175 -244 -21 -29 -319 -446 -353 -493
-12 -18 -26 -35 -30 -38 -5 -4 -14 -16 -20 -28 -16 -28 -276 -389 -285 -395
-10 -6 -7 4509 3 4554 4 19 7 42 7 50 0 37 35 124 64 158 28 34 78 64 139 88
63 24 192 34 480 39 280 6 473 17 496 31 3 1 28 6 55 10 27 3 54 9 59 12 6 4
18 8 28 9 28 5 137 52 197 86 104 59 189 155 261 297 29 57 33 62 45 45 7 -10
11 -22 8 -26z"/>
</g>
</svg>
